<?xml version="1.0" encoding="UTF-8"?>
<svg width="50px" height="61px" viewBox="0 0 50 61" version="1.1" xmlns="http://www.w3.org/2000/svg" xmlns:xlink="http://www.w3.org/1999/xlink">
    <!-- Generator: Sketch 50.2 (55047) - http://www.bohemiancoding.com/sketch -->
    <title>icon-3</title>
    <desc>Created with Sketch.</desc>
    <defs></defs>
    <g id="Page-1" stroke="none" stroke-width="1" fill="none" fill-rule="evenodd">
        <g id="Homepage" transform="translate(-1099.000000, -658.000000)" fill="#01C85C">
            <path d="M1123.76562,718.691406 C1120.24998,718.691406 1117.00783,718.11524 1114.03906,716.962891 C1111.0703,715.810541 1108.5215,714.199229 1106.39258,712.128906 C1104.26366,710.058583 1102.60352,707.597671 1101.41211,704.746094 C1100.2207,701.894517 1099.625,698.789079 1099.625,695.429688 C1099.625,693.632804 1099.84961,691.845712 1100.29883,690.068359 C1100.74805,688.291007 1101.24609,686.679695 1101.79297,685.234375 C1102.33985,683.789055 1102.84765,682.607426 1103.31641,681.689453 C1103.78516,680.77148 1104.05859,680.273438 1104.13672,680.195312 C1104.29297,679.843748 1104.54687,679.589845 1104.89844,679.433594 C1105.25,679.277343 1105.60156,679.21875 1105.95312,679.257812 C1106.34375,679.296875 1106.68555,679.443358 1106.97852,679.697266 C1107.27149,679.951173 1107.45703,680.253904 1107.53516,680.605469 C1107.57422,680.644531 1107.84765,681.484367 1108.35547,683.125 C1108.86328,684.765633 1109.48828,686.1914 1110.23047,687.402344 C1110.77735,688.22266 1111.31445,688.925778 1111.8418,689.511719 C1112.36914,690.097659 1112.92578,690.585936 1113.51172,690.976562 C1113.12109,689.257804 1112.82813,687.167981 1112.63281,684.707031 C1112.4375,682.246081 1112.59375,679.687513 1113.10156,677.03125 C1113.76563,673.398419 1114.8789,670.419933 1116.44141,668.095703 C1118.00391,665.771473 1119.60546,663.925788 1121.24609,662.558594 C1122.88673,661.191399 1124.35156,660.244143 1125.64062,659.716797 C1126.92969,659.18945 1127.63281,658.90625 1127.75,658.867188 C1128.0625,658.789062 1128.375,658.789062 1128.6875,658.867188 C1129,658.945313 1129.29297,659.08203 1129.56641,659.277344 C1129.80078,659.51172 1129.9668,659.785155 1130.06445,660.097656 C1130.16211,660.410158 1130.17188,660.722655 1130.09375,661.035156 L1129.85938,662.792969 C1129.70312,663.96485 1129.63477,665.468741 1129.6543,667.304688 C1129.67383,669.140634 1129.85937,671.171864 1130.21094,673.398438 C1130.5625,675.625011 1131.22656,677.83202 1132.20312,680.019531 C1132.39844,680.410158 1132.62305,680.830076 1132.87695,681.279297 C1133.13086,681.728518 1133.39453,682.187498 1133.66797,682.65625 C1133.74609,682.031247 1133.84375,681.386722 1133.96094,680.722656 C1134.07813,680.05859 1134.23437,679.394535 1134.42969,678.730469 C1135.13282,676.152331 1136.19726,674.355474 1137.62305,673.339844 C1139.04884,672.324214 1139.80078,671.796875 1139.87891,671.757812 C1140.19141,671.601562 1140.51367,671.542969 1140.8457,671.582031 C1141.17774,671.621094 1141.48047,671.757811 1141.75391,671.992188 C1142.02735,672.187501 1142.23242,672.45117 1142.36914,672.783203 C1142.50586,673.115236 1142.53516,673.457029 1142.45703,673.808594 C1142.45703,673.886719 1142.48633,674.716789 1142.54492,676.298828 C1142.60352,677.880867 1143.39452,679.921862 1144.91797,682.421875 C1146.2461,684.648449 1147.15429,686.669913 1147.64258,688.486328 C1148.13086,690.302743 1148.375,692.617173 1148.375,695.429688 C1148.375,698.789079 1147.75977,701.894517 1146.5293,704.746094 C1145.29882,707.597671 1143.58985,710.058583 1141.40234,712.128906 C1139.21483,714.199229 1136.62697,715.810541 1133.63867,716.962891 C1130.65038,718.11524 1127.35939,718.691406 1123.76562,718.691406 Z M1105.48438,686.171875 C1104.97656,687.460944 1104.49805,688.925773 1104.04883,690.566406 C1103.59961,692.207039 1103.375,693.808586 1103.375,695.371094 C1103.375,698.222671 1103.87304,700.839832 1104.86914,703.222656 C1105.86524,705.605481 1107.27148,707.666007 1109.08789,709.404297 C1110.90431,711.142587 1113.06249,712.499995 1115.5625,713.476562 C1118.06251,714.45313 1120.79686,714.941406 1123.76562,714.941406 C1126.81252,714.941406 1129.60546,714.45313 1132.14453,713.476562 C1134.68361,712.499995 1136.88085,711.142587 1138.73633,709.404297 C1140.59181,707.666007 1142.0371,705.605481 1143.07227,703.222656 C1144.10743,700.839832 1144.625,698.222671 1144.625,695.371094 C1144.625,692.949207 1144.42969,690.996101 1144.03906,689.511719 C1143.64844,688.027336 1142.86719,686.308604 1141.69531,684.355469 C1140.91406,683.027337 1140.3086,681.796881 1139.87891,680.664062 C1139.44922,679.531244 1139.15625,678.496098 1139,677.558594 C1138.80469,677.832033 1138.61914,678.154295 1138.44336,678.525391 C1138.26758,678.896486 1138.12109,679.316404 1138.00391,679.785156 C1137.45703,681.777354 1137.18359,683.720694 1137.18359,685.615234 C1137.18359,687.509775 1137.18359,688.457031 1137.18359,688.457031 C1137.18359,688.886721 1137.07617,689.277342 1136.86133,689.628906 C1136.64648,689.980471 1136.32422,690.234374 1135.89453,690.390625 C1135.5039,690.507813 1135.11328,690.507813 1134.72266,690.390625 C1134.33203,690.273437 1134.01953,690.039064 1133.78516,689.6875 C1133.70703,689.570312 1133.04298,688.583994 1131.79297,686.728516 C1130.54296,684.873038 1129.54688,683.16407 1128.80469,681.601562 C1128.0625,679.921867 1127.48633,678.251961 1127.07617,676.591797 C1126.66601,674.931632 1126.37305,673.32032 1126.19727,671.757812 C1126.02148,670.195305 1125.94336,668.730476 1125.96289,667.363281 C1125.98242,665.996087 1126.03125,664.785162 1126.10938,663.730469 C1124.58593,664.628911 1122.8379,666.162099 1120.86523,668.330078 C1118.89257,670.498058 1117.53516,673.632792 1116.79297,677.734375 C1116.40234,679.726572 1116.25586,681.679678 1116.35352,683.59375 C1116.45117,685.507822 1116.63672,687.207024 1116.91016,688.691406 C1117.1836,690.175789 1117.4668,691.386714 1117.75977,692.324219 C1118.05274,693.261723 1118.19922,693.730469 1118.19922,693.730469 C1118.31641,694.04297 1118.3457,694.374998 1118.28711,694.726562 C1118.22852,695.078127 1118.08203,695.390624 1117.84766,695.664062 C1117.61328,695.898439 1117.33008,696.074218 1116.99805,696.191406 C1116.66601,696.308594 1116.34375,696.328125 1116.03125,696.25 C1115.91406,696.210937 1114.82032,695.732426 1112.75,694.814453 C1110.67968,693.89648 1108.78516,692.089857 1107.06641,689.394531 C1106.79297,688.925779 1106.51953,688.408206 1106.24609,687.841797 C1105.97265,687.275388 1105.71875,686.718753 1105.48438,686.171875 Z" id="icon-3"></path>
        </g>
    </g>
</svg>