<svg width="34" height="34" viewBox="0 0 34 34" fill="none" xmlns="http://www.w3.org/2000/svg">
<path d="M34 17C34 26.3888 26.3888 34 17 34C7.61116 34 0 26.3888 0 17C0 7.61116 7.61116 0 17 0C26.3888 0 34 7.61116 34 17Z" fill="white"/>
<path fill-rule="evenodd" clip-rule="evenodd" d="M17 33.25C25.9746 33.25 33.25 25.9746 33.25 17C33.25 8.02537 25.9746 0.75 17 0.75C8.02537 0.75 0.75 8.02537 0.75 17C0.75 25.9746 8.02537 33.25 17 33.25ZM17 34C26.3888 34 34 26.3888 34 17C34 7.61116 26.3888 0 17 0C7.61116 0 0 7.61116 0 17C0 26.3888 7.61116 34 17 34Z" fill="white"/>
<path d="M18.0563 8.07292C21.5973 8.07292 23.6679 10.1702 23.6679 13.1073C23.6679 15.1002 22.5147 16.5158 20.8888 17.1252C23.0129 17.6502 24.2451 19.5359 24.2451 21.6091C24.2451 24.5461 21.9107 26.6702 18.5022 26.6702H12V8.07292H18.0563ZM17.7683 16.1957C19.8402 16.1957 21.0723 14.9635 21.0723 13.2332C21.0723 11.476 19.7879 10.3216 17.6638 10.3216H14.5688V16.1957H17.7683ZM18.1353 24.4082C20.2071 24.4082 21.6174 23.2537 21.6174 21.4457C21.6174 19.6618 20.4897 18.4028 18.2357 18.4028H14.5688V24.4082H18.1353Z" fill="black"/>
</svg>
