<?xml version="1.0" encoding="UTF-8"?>
<svg width="145px" height="129px" viewBox="0 0 145 129" version="1.1" xmlns="http://www.w3.org/2000/svg" xmlns:xlink="http://www.w3.org/1999/xlink">
    <!-- Generator: Sketch 50.2 (55047) - http://www.bohemiancoding.com/sketch -->
    <title>icon-4</title>
    <desc>Created with Sketch.</desc>
    <defs></defs>
    <g id="Page-1" stroke="none" stroke-width="1" fill="none" fill-rule="evenodd">
        <g id="Homepage" transform="translate(-152.000000, -979.000000)">
            <g id="icon-4" transform="translate(152.000000, 979.000000)">
                <path d="M137.609375,9.9609375 C139.47706,9.9609375 141.050734,10.600783 142.330444,11.8804932 C143.610155,13.1602033 144.25,14.7338774 144.25,16.6015625 L144.25,99.609375 C144.25,101.407887 143.610155,102.964268 142.330444,104.278564 C141.050734,105.592861 139.47706,106.25 137.609375,106.25 L44.640625,106.25 C42.7729399,106.25 41.1992658,105.592861 39.9195557,104.278564 C38.6398455,102.964268 38,101.407887 38,99.609375 L38,16.6015625 C38,14.7338774 38.6398455,13.1602033 39.9195557,11.8804932 C41.1992658,10.600783 42.7729399,9.9609375 44.640625,9.9609375 L71.203125,9.9609375 L71.203125,3.3203125 C71.203125,2.4210567 71.5316943,1.64286624 72.1888428,0.985717773 C72.8459912,0.328569305 73.6241817,0 74.5234375,0 C75.4226933,0 76.2008838,0.328569305 76.8580322,0.985717773 C77.5151807,1.64286624 77.84375,2.4210567 77.84375,3.3203125 L77.84375,9.9609375 L104.40625,9.9609375 L104.40625,3.3203125 C104.40625,2.4210567 104.734819,1.64286624 105.391968,0.985717773 C106.049116,0.328569305 106.827307,0 107.726562,0 C108.625818,0 109.404009,0.328569305 110.061157,0.985717773 C110.718306,1.64286624 111.046875,2.4210567 111.046875,3.3203125 L111.046875,9.9609375 L137.609375,9.9609375 Z M137.609375,99.609375 L137.609375,16.6015625 L111.046875,16.6015625 L111.046875,19.921875 C111.046875,20.8211308 110.718306,21.5993213 110.061157,22.2564697 C109.404009,22.9136182 108.625818,23.2421875 107.726562,23.2421875 C106.827307,23.2421875 106.049116,22.9136182 105.391968,22.2564697 C104.734819,21.5993213 104.40625,20.8211308 104.40625,19.921875 L104.40625,16.6015625 L77.84375,16.6015625 L77.84375,19.921875 C77.84375,20.8211308 77.5151807,21.5993213 76.8580322,22.2564697 C76.2008838,22.9136182 75.4226933,23.2421875 74.5234375,23.2421875 C73.6241817,23.2421875 72.8459912,22.9136182 72.1888428,22.2564697 C71.5316943,21.5993213 71.203125,20.8211308 71.203125,19.921875 L71.203125,16.6015625 L44.640625,16.6015625 L44.640625,99.609375 L137.609375,99.609375 Z M114.367188,53.125 C113.467932,53.125 112.689741,52.7964307 112.032593,52.1392822 C111.375444,51.4821338 111.046875,50.7039433 111.046875,49.8046875 L111.046875,43.1640625 C111.046875,42.2648067 111.375444,41.4866162 112.032593,40.8294678 C112.689741,40.1723193 113.467932,39.84375 114.367188,39.84375 L121.007812,39.84375 C121.907068,39.84375 122.685259,40.1723193 123.342407,40.8294678 C123.999556,41.4866162 124.328125,42.2648067 124.328125,43.1640625 L124.328125,49.8046875 C124.328125,50.7039433 123.999556,51.4821338 123.342407,52.1392822 C122.685259,52.7964307 121.907068,53.125 121.007812,53.125 L114.367188,53.125 Z M114.367188,79.6875 C113.467932,79.6875 112.689741,79.3589307 112.032593,78.7017822 C111.375444,78.0446338 111.046875,77.2664433 111.046875,76.3671875 L111.046875,69.7265625 C111.046875,68.8273067 111.375444,68.0491162 112.032593,67.3919678 C112.689741,66.7348193 113.467932,66.40625 114.367188,66.40625 L121.007812,66.40625 C121.907068,66.40625 122.685259,66.7348193 123.342407,67.3919678 C123.999556,68.0491162 124.328125,68.8273067 124.328125,69.7265625 L124.328125,76.3671875 C124.328125,77.2664433 123.999556,78.0446338 123.342407,78.7017822 C122.685259,79.3589307 121.907068,79.6875 121.007812,79.6875 L114.367188,79.6875 Z M94.4453125,66.40625 C95.3445683,66.40625 96.1227588,66.7348193 96.7799072,67.3919678 C97.4370557,68.0491162 97.765625,68.8273067 97.765625,69.7265625 L97.765625,76.3671875 C97.765625,77.2664433 97.4370557,78.0446338 96.7799072,78.7017822 C96.1227588,79.3589307 95.3445683,79.6875 94.4453125,79.6875 L87.8046875,79.6875 C86.9054317,79.6875 86.1272412,79.3589307 85.4700928,78.7017822 C84.8129443,78.0446338 84.484375,77.2664433 84.484375,76.3671875 L84.484375,69.7265625 C84.484375,68.8273067 84.8129443,68.0491162 85.4700928,67.3919678 C86.1272412,66.7348193 86.9054317,66.40625 87.8046875,66.40625 L94.4453125,66.40625 Z M94.4453125,39.84375 C95.3445683,39.84375 96.1227588,40.1723193 96.7799072,40.8294678 C97.4370557,41.4866162 97.765625,42.2648067 97.765625,43.1640625 L97.765625,49.8046875 C97.765625,50.7039433 97.4370557,51.4821338 96.7799072,52.1392822 C96.1227588,52.7964307 95.3445683,53.125 94.4453125,53.125 L87.8046875,53.125 C86.9054317,53.125 86.1272412,52.7964307 85.4700928,52.1392822 C84.8129443,51.4821338 84.484375,50.7039433 84.484375,49.8046875 L84.484375,43.1640625 C84.484375,42.2648067 84.8129443,41.4866162 85.4700928,40.8294678 C86.1272412,40.1723193 86.9054317,39.84375 87.8046875,39.84375 L94.4453125,39.84375 Z M67.8828125,39.84375 C68.7820683,39.84375 69.5602588,40.1723193 70.2174072,40.8294678 C70.8745557,41.4866162 71.203125,42.2648067 71.203125,43.1640625 L71.203125,49.8046875 C71.203125,50.7039433 70.8745557,51.4821338 70.2174072,52.1392822 C69.5602588,52.7964307 68.7820683,53.125 67.8828125,53.125 L61.2421875,53.125 C60.3429317,53.125 59.5647412,52.7964307 58.9075928,52.1392822 C58.2504443,51.4821338 57.921875,50.7039433 57.921875,49.8046875 L57.921875,43.1640625 C57.921875,42.2648067 58.2504443,41.4866162 58.9075928,40.8294678 C59.5647412,40.1723193 60.3429317,39.84375 61.2421875,39.84375 L67.8828125,39.84375 Z M67.8828125,66.40625 C68.7820683,66.40625 69.5602588,66.7348193 70.2174072,67.3919678 C70.8745557,68.0491162 71.203125,68.8273067 71.203125,69.7265625 L71.203125,76.3671875 C71.203125,77.2664433 70.8745557,78.0446338 70.2174072,78.7017822 C69.5602588,79.3589307 68.7820683,79.6875 67.8828125,79.6875 L61.2421875,79.6875 C60.3429317,79.6875 59.5647412,79.3589307 58.9075928,78.7017822 C58.2504443,78.0446338 57.921875,77.2664433 57.921875,76.3671875 L57.921875,69.7265625 C57.921875,68.8273067 58.2504443,68.0491162 58.9075928,67.3919678 C59.5647412,66.7348193 60.3429317,66.40625 61.2421875,66.40625 L67.8828125,66.40625 Z" id="Calendar---simple-line-icons" fill="#01C85C"></path>
                <path d="M65.625,67.75 C66.8554749,67.75 67.8922484,68.1715453 68.7353516,69.0146484 C69.5784547,69.8577516 70,70.8945251 70,72.125 L70,111.568359 C70,112.798834 69.5784547,113.835608 68.7353516,114.678711 C67.8922484,115.521814 66.8554749,115.943359 65.625,115.943359 L29.4628906,115.943359 L16.8164062,128.384766 C16.5885405,128.612631 16.3492851,128.772135 16.0986328,128.863281 C15.8479805,128.954428 15.5859389,129 15.3125,129 C15.1302074,129 14.9707038,128.988607 14.8339844,128.96582 C14.6972649,128.943034 14.5605476,128.908854 14.4238281,128.863281 C14.0136698,128.680989 13.6946626,128.407554 13.4667969,128.042969 C13.2389312,127.678384 13.125,127.268231 13.125,126.8125 L13.125,115.943359 L4.375,115.943359 C3.1445251,115.943359 2.10775161,115.521814 1.26464844,114.678711 C0.421545264,113.835608 0,112.798834 0,111.568359 L0,72.125 C0,70.8945251 0.421545264,69.8577516 1.26464844,69.0146484 C2.10775161,68.1715453 3.1445251,67.75 4.375,67.75 L65.625,67.75 Z M65.625,111.568359 L65.625,72.125 L4.375,72.125 L4.375,111.568359 L17.5,111.568359 L17.5,121.617188 L27.6855469,111.568359 L65.625,111.568359 Z M15.3125,94.0683594 C14.7200491,94.0683594 14.2073589,93.8518902 13.7744141,93.4189453 C13.3414692,92.9860004 13.125,92.4733103 13.125,91.8808594 C13.125,91.2884085 13.3414692,90.7757183 13.7744141,90.3427734 C14.2073589,89.9098286 14.7200491,89.6933594 15.3125,89.6933594 L54.6875,89.6933594 C55.2799509,89.6933594 55.7926411,89.9098286 56.2255859,90.3427734 C56.6585308,90.7757183 56.875,91.2884085 56.875,91.8808594 C56.875,92.4733103 56.6585308,92.9860004 56.2255859,93.4189453 C55.7926411,93.8518902 55.2799509,94.0683594 54.6875,94.0683594 L15.3125,94.0683594 Z M15.3125,85.3183594 C14.7200491,85.3183594 14.2073589,85.1018902 13.7744141,84.6689453 C13.3414692,84.2360004 13.125,83.7233103 13.125,83.1308594 C13.125,82.5384085 13.3414692,82.0257183 13.7744141,81.5927734 C14.2073589,81.1598286 14.7200491,80.9433594 15.3125,80.9433594 L54.6875,80.9433594 C55.2799509,80.9433594 55.7926411,81.1598286 56.2255859,81.5927734 C56.6585308,82.0257183 56.875,82.5384085 56.875,83.1308594 C56.875,83.7233103 56.6585308,84.2360004 56.2255859,84.6689453 C55.7926411,85.1018902 55.2799509,85.3183594 54.6875,85.3183594 L15.3125,85.3183594 Z M15.3125,102.818359 C14.7200491,102.818359 14.2073589,102.60189 13.7744141,102.168945 C13.3414692,101.736 13.125,101.22331 13.125,100.630859 C13.125,100.038408 13.3414692,99.5257183 13.7744141,99.0927734 C14.2073589,98.6598286 14.7200491,98.4433594 15.3125,98.4433594 L41.5625,98.4433594 C42.1549509,98.4433594 42.6676411,98.6598286 43.1005859,99.0927734 C43.5335308,99.5257183 43.75,100.038408 43.75,100.630859 C43.75,101.22331 43.5335308,101.736 43.1005859,102.168945 C42.6676411,102.60189 42.1549509,102.818359 41.5625,102.818359 L15.3125,102.818359 Z" id="" fill="#4A4A4A"></path>
            </g>
        </g>
    </g>
</svg>