<?xml version="1.0" encoding="UTF-8"?>
<svg width="60px" height="57px" viewBox="0 0 60 57" version="1.1" xmlns="http://www.w3.org/2000/svg" xmlns:xlink="http://www.w3.org/1999/xlink">
    <!-- Generator: Sketch 50.2 (55047) - http://www.bohemiancoding.com/sketch -->
    <title>icon-1</title>
    <desc>Created with Sketch.</desc>
    <defs></defs>
    <g id="Page-1" stroke="none" stroke-width="1" fill="none" fill-rule="evenodd">
        <g id="Homepage" transform="translate(-281.000000, -660.000000)" fill="#01C85C">
            <path d="M324.125,713.125 C324.632815,713.125 325.072264,713.310545 325.443359,713.681641 C325.814455,714.052736 326,714.492185 326,715 C326,715.507815 325.814455,715.947264 325.443359,716.318359 C325.072264,716.689455 324.632815,716.875 324.125,716.875 L297.757812,716.875 C297.249997,716.875 296.810549,716.689455 296.439453,716.318359 C296.068358,715.947264 295.882812,715.507815 295.882812,715 C295.882812,714.492185 296.068358,714.052736 296.439453,713.681641 C296.810549,713.310545 297.249997,713.125 297.757812,713.125 L324.125,713.125 Z M340.589844,665.898438 C340.628906,666.015626 340.707031,667.363268 340.824219,669.941406 C340.941407,672.519544 340.08204,674.941395 338.246094,677.207031 C337.191401,678.4961 335.843758,679.482418 334.203125,680.166016 C332.562492,680.849613 330.648448,681.210937 328.460938,681.25 C327.874997,683.007821 327.064458,684.64843 326.029297,686.171875 C324.994135,687.69532 323.792976,689.033197 322.425781,690.185547 C321.058587,691.337896 319.554696,692.275387 317.914062,692.998047 C316.273429,693.720707 314.535165,694.179687 312.699219,694.375 L312.699219,707.441406 L318.5,707.441406 C319.007815,707.441406 319.447264,707.626951 319.818359,707.998047 C320.189455,708.369142 320.375,708.808591 320.375,709.316406 C320.375,709.824221 320.189455,710.26367 319.818359,710.634766 C319.447264,711.005861 319.007815,711.191406 318.5,711.191406 L303.382812,711.191406 C302.835935,711.191406 302.386721,711.005861 302.035156,710.634766 C301.683592,710.26367 301.507812,709.824221 301.507812,709.316406 C301.507812,708.808591 301.683592,708.369142 302.035156,707.998047 C302.386721,707.626951 302.835935,707.441406 303.382812,707.441406 L308.949219,707.441406 L308.949219,694.375 C307.152335,694.179687 305.433602,693.720707 303.792969,692.998047 C302.152336,692.275387 300.648444,691.337896 299.28125,690.185547 C297.914056,689.033197 296.712896,687.69532 295.677734,686.171875 C294.642573,684.64843 293.832034,683.007821 293.246094,681.25 C291.136708,681.171875 289.281258,680.800785 287.679688,680.136719 C286.078117,679.472653 284.769536,678.4961 283.753906,677.207031 C281.91796,674.941395 281.058593,672.519544 281.175781,669.941406 C281.292969,667.363268 281.371094,666.015626 281.410156,665.898438 C281.488282,665.429685 281.703123,665.058595 282.054688,664.785156 C282.406252,664.511717 282.796873,664.375 283.226562,664.375 L292.132812,664.375 L292.132812,662.5 C292.132812,661.992185 292.318358,661.552736 292.689453,661.181641 C293.060549,660.810545 293.499997,660.625 294.007812,660.625 L327.699219,660.625 C328.246096,660.625 328.695311,660.810545 329.046875,661.181641 C329.398439,661.552736 329.574219,661.992185 329.574219,662.5 L329.574219,664.375 L338.773438,664.375 C339.203127,664.375 339.593748,664.511717 339.945312,664.785156 C340.296877,665.058595 340.511718,665.429685 340.589844,665.898438 Z M286.625,674.863281 C287.250003,675.605472 288.041011,676.191404 288.998047,676.621094 C289.955083,677.050783 291.078119,677.324218 292.367188,677.441406 C292.289062,676.933591 292.230469,676.435549 292.191406,675.947266 C292.152344,675.458982 292.132812,674.96094 292.132812,674.453125 L292.132812,668.125 L284.925781,668.125 C284.886719,668.984379 284.955077,670.068353 285.130859,671.376953 C285.306642,672.685553 285.804683,673.847651 286.625,674.863281 Z M325.824219,674.453125 L325.824219,664.375 L295.882812,664.375 L295.882812,674.453125 C295.882812,676.718761 296.273434,678.837881 297.054688,680.810547 C297.835941,682.783213 298.910149,684.501946 300.277344,685.966797 C301.644538,687.431648 303.236319,688.593746 305.052734,689.453125 C306.86915,690.312504 308.81249,690.742188 310.882812,690.742188 C312.953135,690.742188 314.896475,690.312504 316.712891,689.453125 C318.529306,688.593746 320.111321,687.431648 321.458984,685.966797 C322.806647,684.501946 323.87109,682.783213 324.652344,680.810547 C325.433598,678.837881 325.824219,676.718761 325.824219,674.453125 Z M335.375,674.863281 C336.195317,673.847651 336.693358,672.685553 336.869141,671.376953 C337.044923,670.068353 337.113281,668.984379 337.074219,668.125 L329.574219,668.125 L329.574219,674.453125 C329.574219,674.96094 329.554688,675.468747 329.515625,675.976562 C329.476562,676.484378 329.417969,676.972654 329.339844,677.441406 C330.707038,677.363281 331.888667,677.099612 332.884766,676.650391 C333.880864,676.20117 334.710934,675.605472 335.375,674.863281 Z" id="icon-1"></path>
        </g>
    </g>
</svg>