<?xml version="1.0" encoding="UTF-8"?>
<svg width="62px" height="46px" viewBox="0 0 62 46" version="1.1" xmlns="http://www.w3.org/2000/svg" xmlns:xlink="http://www.w3.org/1999/xlink">
    <!-- Generator: Sketch 50.2 (55047) - http://www.bohemiancoding.com/sketch -->
    <title>icon-2</title>
    <desc>Created with Sketch.</desc>
    <defs></defs>
    <g id="Page-1" stroke="none" stroke-width="1" fill="none" fill-rule="evenodd">
        <g id="Homepage" transform="translate(-689.000000, -666.000000)" fill="#01C85C">
            <path d="M750.058594,696.953125 C750.097656,697.070313 750.107422,697.177734 750.087891,697.275391 C750.068359,697.373047 750.039063,697.480468 750,697.597656 C750,697.675782 750.009766,697.763671 750.029297,697.861328 C750.048828,697.958985 750.058594,698.066406 750.058594,698.183594 C750.058594,699.980478 749.7168,701.669914 749.033203,703.251953 C748.349606,704.833992 747.412115,706.220697 746.220703,707.412109 C745.029291,708.603522 743.642586,709.541012 742.060547,710.224609 C740.478508,710.908207 738.76954,711.25 736.933594,711.25 C735.13671,711.25 733.437508,710.908207 731.835938,710.224609 C730.234367,709.541012 728.828131,708.603522 727.617188,707.412109 C726.406244,706.220697 725.449222,704.833992 724.746094,703.251953 C724.042965,701.669914 723.691406,699.980478 723.691406,698.183594 C723.691406,697.597653 723.720703,697.041018 723.779297,696.513672 C723.837891,695.986325 723.945312,695.468753 724.101562,694.960938 C723.710936,694.804687 723.164066,694.648438 722.460938,694.492188 C721.757809,694.335937 720.937505,694.257812 720,694.257812 C719.023433,694.257812 718.193363,694.345702 717.509766,694.521484 C716.826168,694.697267 716.289064,694.86328 715.898438,695.019531 C716.015626,695.527346 716.113281,696.044919 716.191406,696.572266 C716.269532,697.099612 716.308594,697.636716 716.308594,698.183594 C716.308594,699.980478 715.9668,701.669914 715.283203,703.251953 C714.599606,704.833992 713.662115,706.220697 712.470703,707.412109 C711.279291,708.603522 709.892586,709.541012 708.310547,710.224609 C706.728508,710.908207 705.01954,711.25 703.183594,711.25 C701.38671,711.25 699.687508,710.908207 698.085938,710.224609 C696.484367,709.541012 695.078131,708.603522 693.867188,707.412109 C692.656244,706.220697 691.699222,704.833992 690.996094,703.251953 C690.292965,701.669914 689.941406,699.980478 689.941406,698.183594 L689.941406,697.363281 C689.941406,697.285156 689.931641,697.197266 689.912109,697.099609 C689.892578,697.001953 689.902344,696.914063 689.941406,696.835938 C689.941406,696.640624 690.097655,695.546885 690.410156,693.554688 C690.722658,691.56249 691.074217,689.33595 691.464844,686.875 C691.855471,684.41405 692.236326,682.060558 692.607422,679.814453 C692.978517,677.568348 693.222656,676.093754 693.339844,675.390625 C693.339844,675.234374 693.349609,675.087891 693.369141,674.951172 C693.388672,674.814452 693.417969,674.66797 693.457031,674.511719 C693.613282,673.066399 694.189448,671.328135 695.185547,669.296875 C696.181646,667.265615 698.828104,666.25 703.125,666.25 C703.632815,666.25 704.072264,666.435545 704.443359,666.806641 C704.814455,667.177736 705,667.617185 705,668.125 C705,668.632815 704.814455,669.072264 704.443359,669.443359 C704.072264,669.814455 703.632815,670 703.125,670 C700.468737,670 698.857425,670.478511 698.291016,671.435547 C697.724607,672.392583 697.343751,673.574212 697.148438,674.980469 C697.148438,675.13672 697.128906,675.302733 697.089844,675.478516 C697.050781,675.654298 697.03125,675.820312 697.03125,675.976562 C696.914062,676.640628 696.640627,678.154285 696.210938,680.517578 C695.781248,682.880871 695.351565,685.371081 694.921875,687.988281 C696.054693,687.089839 697.324212,686.376956 698.730469,685.849609 C700.136726,685.322263 701.621086,685.058594 703.183594,685.058594 C705.605481,685.058594 707.802725,685.654291 709.775391,686.845703 C711.748057,688.037115 713.320307,689.589834 714.492188,691.503906 C715.039065,691.26953 715.77148,691.044923 716.689453,690.830078 C717.607426,690.615233 718.710931,690.507812 720,690.507812 C721.250006,690.507812 722.353511,690.615233 723.310547,690.830078 C724.267583,691.044923 725.019529,691.26953 725.566406,691.503906 C726.738287,689.589834 728.330068,688.037115 730.341797,686.845703 C732.353526,685.654291 734.550769,685.058594 736.933594,685.058594 C738.417976,685.058594 739.833978,685.302732 741.181641,685.791016 C742.529304,686.279299 743.749995,686.93359 744.84375,687.753906 C744.41406,685.136706 743.994143,682.685558 743.583984,680.400391 C743.173826,678.115223 742.910157,676.640628 742.792969,675.976562 C742.753906,675.820312 742.724609,675.654298 742.705078,675.478516 C742.685547,675.302733 742.675781,675.13672 742.675781,674.980469 C742.480468,673.574212 742.099612,672.392583 741.533203,671.435547 C740.966794,670.478511 739.355482,670 736.699219,670 C736.152341,670 735.703127,669.814455 735.351562,669.443359 C734.999998,669.072264 734.824219,668.632815 734.824219,668.125 C734.824219,667.617185 734.999998,667.177736 735.351562,666.806641 C735.703127,666.435545 736.152341,666.25 736.699219,666.25 C740.996115,666.25 743.632808,667.265615 744.609375,669.296875 C745.585942,671.328135 746.171874,673.066399 746.367188,674.511719 C746.40625,674.66797 746.435547,674.814452 746.455078,674.951172 C746.474609,675.087891 746.484375,675.234374 746.484375,675.390625 C746.601563,676.093754 746.855467,677.578114 747.246094,679.84375 C747.636721,682.109386 748.037107,684.472644 748.447266,686.933594 C748.857424,689.394544 749.228514,691.630849 749.560547,693.642578 C749.89258,695.654307 750.058594,696.757812 750.058594,696.953125 Z M703.183594,707.5 C705.761732,707.5 707.968741,706.591806 709.804688,704.775391 C711.640634,702.958975 712.558594,700.761732 712.558594,698.183594 C712.558594,695.605456 711.640634,693.398447 709.804688,691.5625 C707.968741,689.726553 705.761732,688.808594 703.183594,688.808594 C700.605456,688.808594 698.378916,689.736319 696.503906,691.591797 C694.628897,693.447275 693.691406,695.644519 693.691406,698.183594 C693.691406,700.683606 694.628897,702.861319 696.503906,704.716797 C698.378916,706.572275 700.605456,707.5 703.183594,707.5 Z M736.933594,707.5 C739.511732,707.5 741.718741,706.591806 743.554688,704.775391 C745.390634,702.958975 746.308594,700.761732 746.308594,698.183594 C746.308594,698.066406 746.298828,697.96875 746.279297,697.890625 C746.259766,697.8125 746.25,697.734375 746.25,697.65625 C746.25,697.578125 746.240234,697.5 746.220703,697.421875 C746.201172,697.34375 746.171875,697.265625 746.132812,697.1875 C746.132812,697.031249 746.123047,696.865235 746.103516,696.689453 C746.083984,696.513671 746.074219,696.328126 746.074219,696.132812 C745.605466,694.06249 744.521493,692.324226 742.822266,690.917969 C741.123038,689.511712 739.160167,688.808594 736.933594,688.808594 C734.355456,688.808594 732.128916,689.736319 730.253906,691.591797 C728.378897,693.447275 727.441406,695.644519 727.441406,698.183594 C727.441406,700.683606 728.378897,702.861319 730.253906,704.716797 C732.128916,706.572275 734.355456,707.5 736.933594,707.5 Z" id="icon-2"></path>
        </g>
    </g>
</svg>